<svg xmlns:xlink="http://www.w3.org/1999/xlink" preserveAspectRatio="xMidYMid meet" data-bbox="70.069 83.5 59.991 32.9" xmlns="http://www.w3.org/2000/svg" viewBox="70.069 83.5 59.991 32.9" role="presentation" aria-hidden="true" width="62"  height="38" >
    <g stroke="#FFFFFF" fill="#FFFFFF" stroke-width="0px">
        <path d="M129 90.1c-8.4 8.8-17.7 16.8-26.7 24.5l-.9.8c-.8.7-1.7 1-2.6 1s-1.8-.4-2.5-1.1c-8.3-8.8-16.4-17.3-25-25-1.2-1-1.5-2.5-1-4 .6-1.5 2.1-2.6 3.7-2.6.9 0 1.7.3 2.4 1 8.2 7.3 16 15.5 22.8 22.7 7.9-6.8 16.7-14.4 24.6-22.8.7-.7 1.6-1.1 2.5-1.1 1.4 0 2.8 1 3.5 2.4.5 1.5.3 3.1-.8 4.2z" stroke="#FFFFFF" fill="#FFFFFF" stroke-width="0px"></path>
    </g>
</svg>