<svg xmlns:xlink="http://www.w3.org/1999/xlink" preserveAspectRatio="none" data-bbox="-544.637 531.472 91.241 139.028" xmlns="http://www.w3.org/2000/svg" viewBox="-544.637 531.472 91.241 139.028" role="presentation" aria-hidden="true" width="29"  height="45" >
    <g stroke="#FFFFFF" fill="#FFFFFF" stroke-width="0px">
        <path d="M-471.7 593.9c-4 9.6-14.1 16.6-24.6 16.2-5.9-.2-11.6-2.7-16.4-6.1-3.8-2.7-7.2-6.1-9.4-10.3-6-11.5-2-26.7 8.3-35.5 10.2-8.8 31.7-2.3 37.9 6.1 6.3 8.4 8.2 20 4.2 29.6m18.3-14.6c.2-17.1-7.4-35.4-22.6-43.3-8.4-4.3-18.2-5.2-27.6-4.1-14.1 1.6-28.6 8-35.7 20.3-3.6 6.3-5 13.8-5.3 21.1-.6 18.8 6.1 37.3 15.9 53.3 9.8 16.1 26.1 37.2 35.3 43.9 7.6-7.2 18.7-26 26.1-42.1 7.1-15.6 13.7-31.9 13.9-49.1" stroke="#FFFFFF" fill="#FFFFFF" stroke-width="0px"></path>
    </g>
</svg>