<svg xmlns:xlink="http://www.w3.org/1999/xlink" preserveAspectRatio="none" data-bbox="37.564 36 124.952 127.975" xmlns="http://www.w3.org/2000/svg" viewBox="37.564 36 124.952 127.975" role="presentation" aria-hidden="true" width="124.952"  height="127.975" >
    <g stroke="#FFFFFF" fill="#FFFFFF" stroke-width="0px">
        <path d="M157 66.8C145.8 46 116.4 36 96.1 36c-20.3 0-38.4 12-45 21.2-6.6 9.2-10.3 20.1-12.5 31.2-2.5 13-1.7 44.1 16.5 60 19.5 17.1 40.7 17.1 58 14 25.2-4.5 42-29.5 47.5-54.4 2.9-13.8 3.1-28.8-3.6-41.2zm-22.3 27.6l-24.6 9c-.3 1.1-.8 2.1-1.5 3.1-1.8 2.4-4.7 3.9-7.8 3.9-1.1 0-2.2-.2-3.3-.6-3.5-1.2-6.2-4.3-6.9-7.8-.7-3 .3-6.1 2.6-8.3 1.4-1.4 3.3-2.3 5.2-2.7l16.7-38.2c.8-1.8 2.3-2.9 4.2-2.9 1.8 0 3.6 1 4.6 2.6 1 1.5 1.2 3.4.4 5.1l-15.9 36.3c.1.1.3.1.4.2l22.3-8.1c.5-.2 1.1-.3 1.6-.3 2.3 0 4.3 1.7 4.7 4 .3 2.2-.7 4-2.7 4.7z" stroke="#FFFFFF" fill="#FFFFFF" stroke-width="0px"></path>
    </g>
</svg>