<svg xmlns:xlink="http://www.w3.org/1999/xlink" preserveAspectRatio="xMidYMid meet" data-bbox="20 23.499 160.001 153.003" viewBox="20 23.499 160.001 153.003" height="200" width="200" xmlns="http://www.w3.org/2000/svg" data-type="shape" role="presentation" aria-hidden="true" aria-labelledby="svgcid-1q2fbc-t948nb"><title id="svgcid-1q2fbc-t948nb"></title>
    <g stroke="#FFFFFF" fill="#FFFFFF" stroke-width="0px">
        <path d="M179.977 102.136c-.04-1.607-.647-3.205-1.878-4.431l-72.696-72.5c-2.02-2.274-7.454-2.274-10.798-.001L21.901 97.706c-1.229 1.226-1.835 2.824-1.875 4.431H20c0 .03.009.058.009.088-.001.102.027.198.031.3.21 7.16 6.062 12.911 13.292 12.911h6.667v47.768c0 7.345 5.971 13.298 13.334 13.298h93.335c7.363 0 13.333-5.953 13.333-13.298v-47.768h6.666c10.067 0 13.35-11.559 13.318-13.263l.016-.035h-.024zm-73.31 61.066H93.335v-33.243h13.333v33.243zm40-61.066v61.066h-26.666v-39.891c0-3.671-2.987-6.648-6.666-6.648h-26.67c-3.679 0-6.665 2.977-6.665 6.648v39.891H53.333v-61.066h-17.46l64.13-63.951 64.126 63.951h-17.462z" clip-rule="evenodd" fill-rule="evenodd" stroke="#FFFFFF" fill="#FFFFFF" stroke-width="0px"></path>
    </g>
</svg>