<svg xmlns:xlink="http://www.w3.org/1999/xlink" preserveAspectRatio="xMidYMid meet" data-bbox="21 27 158.001 145.999" viewBox="21 27 158.001 145.999" height="200" width="200" xmlns="http://www.w3.org/2000/svg" data-type="shape" role="presentation" aria-hidden="true" aria-labelledby="svgcid-gjtfu8nqab8f"><title id="svgcid-gjtfu8nqab8f"></title>
    <g stroke="#FFFFFF" fill="#FFFFFF" stroke-width="0px">
        <path d="M168.057 35.591C160.751 29.872 151.855 27 141.314 27c-10.447 0-19.658 3.126-27.695 9.41-5.794 4.578-10.247 11.214-13.329 19.892-3.674-8.923-8.442-15.604-14.348-20.115-7.826-6.06-16.985-9.075-27.531-9.075-10.665 0-19.541 2.908-26.685 8.719C24.568 41.644 21 48.853 21 57.479c0 4.657.983 9.256 2.964 13.781 2.009 4.528 5.199 9.521 9.646 14.963 2.699 3.338 9.914 11.199 21.602 23.603 15.944 16.917 26.694 29.394 32.25 37.418a99.485 99.485 0 0 1 12.829 25.755c2.984-8.917 7.342-17.443 13.056-25.581 7.26-10.322 18.784-23.488 34.62-39.566 12.267-12.408 20.517-22.379 24.711-29.898 4.212-7.529 6.323-14.81 6.323-21.871-.001-7.923-3.654-14.736-10.944-20.492z" stroke="#FFFFFF" fill="#FFFFFF" stroke-width="0px"></path>
    </g>
</svg>