<svg xmlns:xlink="http://www.w3.org/1999/xlink" preserveAspectRatio="xMidYMid meet" data-bbox="77.441 49 45.164 102" xmlns="http://www.w3.org/2000/svg" viewBox="77.441 49 45.164 102" role="presentation" aria-hidden="true" width="45.164"  height="102" >
    <g stroke="#FFFFFF" fill="#FFFFFF" stroke-width="0px">
        <path d="M84.7 69.5c3.8-5.5 8.6-9.8 14.3-12.7 1.7-.9 2.6-2.8 2.1-4.7-.5-1.8-1.9-3.1-3.6-3.1-.6 0-1.2.2-1.8.5-7.2 3.7-13.1 8.8-17.5 15.2-.9 1.3-1 2.8-.3 4.2.7 1.4 2.2 2.3 3.7 2.3 1.3 0 2.4-.6 3.1-1.7z" stroke="#FFFFFF" fill="#FFFFFF" stroke-width="0px"></path>
        <path d="M119.1 97.4c-8.4-1.3-16.8-1.4-25.2-.2-2.1.3-3.6 2.1-3.4 4.3.2 2.2 1.8 3.8 3.9 3.8h.6c7.7-1.1 15.3-1 23 .2.2 0 .5.1.7.1 2.1 0 3.7-1.6 3.9-3.7.1-2.4-1.3-4.2-3.5-4.5z" stroke="#FFFFFF" fill="#FFFFFF" stroke-width="0px"></path>
        <path d="M85 134.8c-2.4-.5-4.5 1.2-4.7 3.6-.2 2.1 1.1 3.9 3.2 4.3 5.7 1 10.5 3.4 14.8 7.3.8.7 1.7 1 2.6 1 1.6 0 3.2-1.1 3.8-2.7.6-1.5.2-3.2-1.1-4.3-5.2-4.8-11.5-7.9-18.6-9.2z" stroke="#FFFFFF" fill="#FFFFFF" stroke-width="0px"></path>
    </g>
</svg>